<?xml version="1.0" encoding="iso-8859-1"?>
<!-- Generator: Adobe Illustrator 19.0.0, SVG Export Plug-In . SVG Version: 6.00 Build 0)  -->
<svg version="1.1" id="Capa_1" xmlns="http://www.w3.org/2000/svg" xmlns:xlink="http://www.w3.org/1999/xlink" x="0px" y="0px"
	 viewBox="0 0 512.002 512.002" style="enable-background:new 0 0 512.002 512.002;" xml:space="preserve">
<g>
	<polygon style="fill:#E6E6E6;" points="256.001,93.867 290.134,68.267 290.134,8.533 256.001,8.533 238.934,25.6 221.868,8.533 
		170.668,8.533 153.601,25.6 136.534,8.533 102.401,8.533 102.401,68.267 136.534,93.867 	"/>
	<path style="fill:#E6E6E6;" d="M327.348,196.668c-20.83-27.264-48.913-48.102-81.05-60.134H146.237
		C60.946,166.554,8.534,270.302,8.534,357.939c0,103.714,84.053,145.527,187.733,145.527c22.861,0.171,45.67-2.167,68.019-6.972
		V196.267L327.348,196.668z"/>
</g>
<rect x="136.534" y="93.867" style="fill:#2996BF;" width="119.467" height="42.667"/>
<g>
	<path style="fill:#CCCCCC;" d="M256.001,469.333c-103.68,0-187.733-41.813-187.733-145.527c0-66.099,29.867-141.397,81.178-187.273
		h-3.209C60.946,166.554,8.534,270.302,8.534,357.939c0,103.714,84.053,145.527,187.733,145.527
		c22.861,0.171,45.67-2.167,68.019-6.972v-27.358C261.522,469.197,258.791,469.333,256.001,469.333z"/>
	<path style="fill:#CCCCCC;" d="M324.02,196.651h3.328c-1.075-1.348-2.227-2.62-3.328-3.942V196.651z"/>
</g>
<circle style="fill:#FAD87C;" cx="196.268" cy="324.267" r="102.4"/>
<path style="opacity:0.3;fill:#E97424;enable-background:new    ;" d="M232.108,390.827c-56.465,0.085-102.315-45.619-102.4-102.093
	c-0.026-18.475,4.949-36.608,14.396-52.471c-48.649,28.766-64.768,91.52-36.002,140.169s91.52,64.768,140.169,36.002
	c14.839-8.772,27.23-21.163,36.002-36.002C268.502,385.852,250.48,390.827,232.108,390.827z"/>
<rect x="264.534" y="196.267" style="fill:#2996BF;" width="238.933" height="307.2"/>
<rect x="264.534" y="196.267" style="fill:#E3646A;" width="238.933" height="68.267"/>
<g>
	<rect x="298.668" y="298.667" style="fill:#FAD87C;" width="34.133" height="34.133"/>
	<rect x="366.934" y="298.667" style="fill:#FAD87C;" width="34.133" height="34.133"/>
	<rect x="435.201" y="298.667" style="fill:#FAD87C;" width="34.133" height="34.133"/>
	<rect x="298.668" y="366.933" style="fill:#FAD87C;" width="34.133" height="34.133"/>
	<rect x="366.934" y="366.933" style="fill:#FAD87C;" width="34.133" height="34.133"/>
	<rect x="298.668" y="435.2" style="fill:#FAD87C;" width="34.133" height="34.133"/>
	<rect x="366.934" y="435.2" style="fill:#FAD87C;" width="34.133" height="34.133"/>
	<rect x="435.201" y="366.933" style="fill:#FAD87C;" width="34.133" height="102.4"/>
</g>
<g>
	<path style="fill:#006684;" d="M187.734,247.467v18.278c-15.027,3.883-25.54,17.408-25.6,32.922
		c-0.009,13.867,8.866,26.189,22.025,30.566l18.816,6.255c6.187,2.065,10.368,7.859,10.359,14.379
		c0,9.429-7.637,17.067-17.067,17.067c-9.429,0-17.067-7.637-17.067-17.067h-17.067c0.06,15.514,10.573,29.039,25.6,32.922v18.278
		h17.067v-18.278c15.027-3.883,25.54-17.408,25.6-32.922c0.009-13.867-8.866-26.189-22.025-30.566l-18.816-6.255
		c-6.187-2.065-10.359-7.859-10.359-14.379c0-9.429,7.637-17.067,17.067-17.067c9.429,0,17.067,7.637,17.067,17.067h17.067
		c-0.06-15.514-10.573-29.039-25.6-32.922v-18.278H187.734z"/>
	<path style="fill:#006684;" d="M503.468,187.733h-172.51c-18.031-22.221-40.704-40.235-66.423-52.787V98.133l30.72-23.04
		c2.15-1.613,3.413-4.139,3.413-6.827V8.533c0-4.71-3.823-8.533-8.533-8.533h-34.133c-2.261,0-4.437,0.896-6.033,2.5l-11.034,11.034
		L227.901,2.5c-1.596-1.604-3.772-2.5-6.033-2.5h-51.2c-2.261,0-4.437,0.896-6.033,2.5l-11.034,11.034L142.567,2.5
		c-1.596-1.604-3.772-2.5-6.033-2.5h-34.133c-4.71,0-8.533,3.823-8.533,8.533v59.733c0,2.688,1.263,5.214,3.413,6.827l30.72,23.04
		v36.898c-64.597,31.258-128,115.217-128,222.899C0.001,455.842,71.536,512,196.268,512c20.25,0.068,40.457-1.724,60.373-5.359
		c1.297,3.226,4.42,5.35,7.893,5.359h238.933c4.71,0,8.533-3.823,8.533-8.533v-307.2
		C512.001,191.556,508.178,187.733,503.468,187.733z M494.934,256H273.068v-51.2h221.867V256z M256.001,396.57
		c-39.927,33.067-99.098,27.494-132.164-12.433s-27.494-99.098,12.433-132.164c34.731-28.757,85.001-28.757,119.731,0V396.57z
		 M145.068,128v-25.6h102.4V128H145.068z M110.934,17.067h22.067l14.566,14.566c3.328,3.328,8.738,3.328,12.066,0L174.2,17.067
		h44.134l14.566,14.566c3.328,3.328,8.738,3.328,12.066,0l14.566-14.566h22.067V64l-28.442,21.333H139.376L110.934,64V17.067z
		 M17.068,357.931c0-81.638,48.93-183.219,130.85-212.864h96.759c24.141,9.165,45.841,23.765,63.428,42.667h-43.571
		c-4.71,0-8.533,3.823-8.533,8.533v34.62c-51.567-33.075-120.192-18.091-153.267,33.485s-18.091,120.192,33.485,153.267
		c36.497,23.407,83.285,23.407,119.782,0v71.765c-19.686,3.763-39.689,5.615-59.733,5.53
		C142.388,494.933,17.068,481.587,17.068,357.931z M273.068,494.933V273.067h221.867v221.867H273.068z"/>
	<path style="fill:#006684;" d="M332.801,290.133h-34.133c-4.71,0-8.533,3.823-8.533,8.533V332.8c0,4.71,3.823,8.533,8.533,8.533
		h34.133c4.71,0,8.533-3.823,8.533-8.533v-34.133C341.334,293.956,337.511,290.133,332.801,290.133z M324.268,324.267h-17.067V307.2
		h17.067V324.267z"/>
	<path style="fill:#006684;" d="M401.068,290.133h-34.133c-4.71,0-8.533,3.823-8.533,8.533V332.8c0,4.71,3.823,8.533,8.533,8.533
		h34.133c4.71,0,8.533-3.823,8.533-8.533v-34.133C409.601,293.956,405.778,290.133,401.068,290.133z M392.534,324.267h-17.067V307.2
		h17.067V324.267z"/>
	<path style="fill:#006684;" d="M469.334,290.133h-34.133c-4.71,0-8.533,3.823-8.533,8.533V332.8c0,4.71,3.823,8.533,8.533,8.533
		h34.133c4.71,0,8.533-3.823,8.533-8.533v-34.133C477.868,293.956,474.045,290.133,469.334,290.133z M460.801,324.267h-17.067V307.2
		h17.067V324.267z"/>
	<path style="fill:#006684;" d="M332.801,358.4h-34.133c-4.71,0-8.533,3.823-8.533,8.533v34.133c0,4.71,3.823,8.533,8.533,8.533
		h34.133c4.71,0,8.533-3.823,8.533-8.533v-34.133C341.334,362.223,337.511,358.4,332.801,358.4z M324.268,392.533h-17.067v-17.067
		h17.067V392.533z"/>
	<path style="fill:#006684;" d="M401.068,358.4h-34.133c-4.71,0-8.533,3.823-8.533,8.533v34.133c0,4.71,3.823,8.533,8.533,8.533
		h34.133c4.71,0,8.533-3.823,8.533-8.533v-34.133C409.601,362.223,405.778,358.4,401.068,358.4z M392.534,392.533h-17.067v-17.067
		h17.067V392.533z"/>
	<path style="fill:#006684;" d="M332.801,426.667h-34.133c-4.71,0-8.533,3.823-8.533,8.533v34.133c0,4.71,3.823,8.533,8.533,8.533
		h34.133c4.71,0,8.533-3.823,8.533-8.533V435.2C341.334,430.49,337.511,426.667,332.801,426.667z M324.268,460.8h-17.067v-17.067
		h17.067V460.8z"/>
	<path style="fill:#006684;" d="M401.068,426.667h-34.133c-4.71,0-8.533,3.823-8.533,8.533v34.133c0,4.71,3.823,8.533,8.533,8.533
		h34.133c4.71,0,8.533-3.823,8.533-8.533V435.2C409.601,430.49,405.778,426.667,401.068,426.667z M392.534,460.8h-17.067v-17.067
		h17.067V460.8z"/>
	<path style="fill:#006684;" d="M469.334,358.4h-34.133c-4.71,0-8.533,3.823-8.533,8.533v102.4c0,4.71,3.823,8.533,8.533,8.533
		h34.133c4.71,0,8.533-3.823,8.533-8.533v-102.4C477.868,362.223,474.045,358.4,469.334,358.4z M460.801,460.8h-17.067v-85.333
		h17.067V460.8z"/>
	<rect x="460.801" y="221.867" style="fill:#006684;" width="17.067" height="17.067"/>
	<rect x="426.668" y="221.867" style="fill:#006684;" width="17.067" height="17.067"/>
	<rect x="392.534" y="221.867" style="fill:#006684;" width="17.067" height="17.067"/>
</g>
<g>
</g>
<g>
</g>
<g>
</g>
<g>
</g>
<g>
</g>
<g>
</g>
<g>
</g>
<g>
</g>
<g>
</g>
<g>
</g>
<g>
</g>
<g>
</g>
<g>
</g>
<g>
</g>
<g>
</g>
</svg>
