<?xml version="1.0" encoding="utf-8"?>
<!-- Designed by Vexels.com - 2020 All Rights Reserved - https://vexels.com/terms-and-conditions/  -->
<svg version="1.1" id="Capa_1" xmlns="http://www.w3.org/2000/svg" xmlns:xlink="http://www.w3.org/1999/xlink" x="0px" y="0px"
	 viewBox="0 0 1200 1200" enable-background="new 0 0 1200 1200" xml:space="preserve">
<g>
	<path fill="#FF8A93" d="M848.815,961.134c0.002-0.019,0.006-0.037,0.008-0.057c0.202-1.841,0.559-3.632,0.857-5.443
		c0.238-1.43,0.408-2.88,0.702-4.289c0.391-1.864,0.917-3.674,1.405-5.501c0.353-1.315,0.655-2.648,1.06-3.941
		c0.554-1.781,1.224-3.506,1.872-5.245c0.479-1.285,0.923-2.584,1.45-3.844c0.704-1.676,1.501-3.299,2.29-4.932
		c0.608-1.258,1.195-2.526,1.854-3.756c0.831-1.555,1.735-3.058,2.643-4.565c0.746-1.239,1.485-2.477,2.28-3.682
		c0.942-1.425,1.94-2.804,2.948-4.178c0.883-1.204,1.773-2.4,2.707-3.564c1.039-1.295,2.117-2.549,3.216-3.792
		c1.019-1.154,2.054-2.286,3.123-3.393c1.123-1.163,2.271-2.294,3.446-3.403c1.156-1.089,2.334-2.147,3.539-3.184
		c1.192-1.026,2.397-2.03,3.635-3.003c1.288-1.011,2.606-1.976,3.943-2.927c1.25-0.889,2.504-1.769,3.795-2.603
		c1.417-0.916,2.871-1.77,4.332-2.619c1.298-0.751,2.589-1.506,3.921-2.202c1.546-0.807,3.132-1.537,4.721-2.265
		c1.328-0.61,2.643-1.239,4-1.793c1.687-0.688,3.417-1.28,5.147-1.88c1.328-0.461,2.638-0.958,3.989-1.365
		c1.861-0.56,3.767-1.001,5.669-1.457c1.284-0.307,2.543-0.669,3.844-0.927c2.145-0.426,4.336-0.708,6.525-0.997
		c1.107-0.146,2.192-0.365,3.31-0.476c3.328-0.328,6.698-0.511,10.106-0.511c3.408,0,6.773,0.183,10.099,0.511
		c1.118,0.109,2.2,0.328,3.306,0.475c2.189,0.288,4.381,0.569,6.526,0.996c1.288,0.256,2.537,0.614,3.808,0.918
		c1.917,0.458,3.836,0.902,5.712,1.467c1.323,0.4,2.605,0.885,3.904,1.335c1.762,0.61,3.524,1.211,5.241,1.913
		c1.317,0.537,2.591,1.148,3.879,1.737c1.636,0.75,3.268,1.5,4.858,2.331c1.276,0.667,2.51,1.39,3.754,2.109
		c1.529,0.882,3.049,1.774,4.528,2.733c1.214,0.786,2.394,1.615,3.572,2.45c1.425,1.011,2.835,2.04,4.208,3.121
		c1.139,0.896,2.247,1.822,3.347,2.764c1.321,1.131,2.613,2.289,3.874,3.484c1.055,1,2.087,2.017,3.099,3.059
		c1.209,1.245,2.378,2.521,3.523,3.825c0.959,1.091,1.904,2.189,2.816,3.32c1.096,1.357,2.137,2.752,3.165,4.164
		c0.85,1.17,1.698,2.337,2.501,3.544c0.975,1.465,1.882,2.971,2.781,4.486c0.735,1.241,1.48,2.469,2.165,3.74
		c0.847,1.57,1.609,3.187,2.375,4.805c0.613,1.292,1.246,2.569,1.805,3.889c0.714,1.685,1.324,3.416,1.95,5.145
		c0.476,1.323,0.992,2.624,1.416,3.971c0.575,1.825,1.027,3.698,1.501,5.564c0.332,1.312,0.721,2.599,1.002,3.928
		c0.441,2.078,0.735,4.203,1.046,6.323c0.172,1.169,0.419,2.315,0.55,3.496c0.006,0.064,0.024,0.126,0.03,0.19h76.053V741.69
		l-112.381-70.236c-1.931-1.205-3.402-3.016-4.181-5.153l-61.989-169.063H830.677v309.698c0,5.65-4.581,10.227-10.227,10.227
		c-0.022,0-0.041-0.006-0.061-0.006v143.977H848.815z"/>
	<path fill="#FFC5C5" d="M276.866,405.931h-40.889v143.112H345.86c5.646,0,10.227,4.578,10.227,10.227
		c0,5.65-4.581,10.227-10.227,10.227H235.977v88.663h64.473c5.646,0,10.227,4.577,10.227,10.227c0,5.649-4.581,10.227-10.227,10.227
		h-64.473v88.66H345.86c5.646,0,10.227,4.578,10.227,10.227c0,5.65-4.581,10.227-10.227,10.227H235.977v173.405h82.736
		c0.003-0.021,0.008-0.041,0.009-0.061c0.239-2.194,0.646-4.335,1.021-6.487c0.186-1.054,0.304-2.131,0.52-3.173
		c0.455-2.185,1.057-4.314,1.649-6.447c0.271-0.977,0.49-1.973,0.789-2.938c0.638-2.06,1.402-4.06,2.164-6.064
		c0.381-0.999,0.723-2.015,1.134-2.999c0.797-1.91,1.698-3.76,2.605-5.612c0.501-1.023,0.978-2.058,1.512-3.062
		c0.929-1.746,1.94-3.436,2.967-5.122c0.638-1.051,1.265-2.104,1.939-3.13c1.038-1.574,2.137-3.098,3.255-4.612
		c0.784-1.063,1.569-2.118,2.392-3.148c1.126-1.408,2.296-2.772,3.495-4.118c0.929-1.048,1.869-2.08,2.841-3.088
		c1.202-1.247,2.43-2.457,3.691-3.643c1.077-1.015,2.178-1.999,3.298-2.967c1.26-1.085,2.534-2.148,3.843-3.173
		c1.225-0.961,2.482-1.877,3.75-2.782c1.304-0.93,2.611-1.847,3.959-2.717c1.37-0.885,2.776-1.71,4.189-2.53
		c1.337-0.776,2.666-1.553,4.039-2.269c1.515-0.791,3.068-1.504,4.624-2.219c1.356-0.622,2.699-1.264,4.084-1.829
		c1.666-0.68,3.373-1.262,5.079-1.855c1.348-0.468,2.677-0.972,4.049-1.385c1.846-0.556,3.737-0.992,5.624-1.445
		c1.296-0.311,2.57-0.676,3.884-0.937c2.139-0.424,4.325-0.705,6.507-0.993c1.112-0.148,2.202-0.367,3.325-0.478
		c3.328-0.328,6.696-0.511,10.106-0.511c3.408,0,6.772,0.183,10.098,0.511c1.118,0.109,2.2,0.328,3.307,0.475
		c2.189,0.288,4.38,0.569,6.525,0.996c1.288,0.256,2.537,0.614,3.81,0.918c1.915,0.458,3.836,0.902,5.71,1.467
		c1.323,0.4,2.605,0.885,3.906,1.335c1.761,0.61,3.525,1.211,5.241,1.913c1.315,0.537,2.589,1.148,3.877,1.737
		c1.636,0.75,3.269,1.5,4.86,2.331c1.276,0.667,2.51,1.39,3.753,2.109c1.529,0.882,3.05,1.774,4.528,2.733
		c1.216,0.786,2.394,1.615,3.572,2.45c1.427,1.011,2.835,2.04,4.208,3.121c1.14,0.896,2.247,1.822,3.345,2.764
		c1.323,1.131,2.614,2.289,3.877,3.484c1.055,1,2.085,2.017,3.099,3.059c1.208,1.245,2.376,2.521,3.521,3.825
		c0.959,1.091,1.904,2.189,2.817,3.32c1.095,1.357,2.137,2.752,3.164,4.164c0.85,1.17,1.699,2.337,2.501,3.544
		c0.975,1.465,1.882,2.971,2.781,4.486c0.737,1.241,1.48,2.469,2.167,3.74c0.846,1.57,1.608,3.187,2.373,4.805
		c0.613,1.292,1.247,2.569,1.806,3.889c0.712,1.685,1.323,3.416,1.948,5.145c0.477,1.323,0.992,2.624,1.416,3.971
		c0.575,1.825,1.027,3.698,1.501,5.564c0.332,1.312,0.721,2.599,1.003,3.928c0.439,2.078,0.734,4.203,1.046,6.323
		c0.17,1.169,0.417,2.315,0.548,3.496c0.008,0.064,0.025,0.126,0.031,0.19h296.996V817.157c-5.617-0.034-10.166-4.592-10.166-10.221
		V487.011v-47.362v-33.718h-42.281c-5.474,0-9.911-4.315-10.177-9.727h-45.746c-28.651,76.036-102.126,130.284-188.061,130.284
		c-85.939,0-159.416-54.248-188.067-130.284h-48.849C286.777,401.616,282.341,405.931,276.866,405.931z"/>
	<path fill="#94F7F2" d="M503.597,972.34l-0.054-0.772c0-0.033,0-0.067,0-0.1c-0.466-45.034-37.474-81.671-82.491-81.671
		c-45.019,0-82.024,36.637-82.491,81.671c0,0.226-0.041,0.909-0.06,1.135c0.006,45.25,37.034,82.278,82.55,82.278
		S503.597,1017.854,503.597,972.34z"/>
	<path fill="#94F7F2" d="M1033.698,972.34l-0.054-0.772c0-0.033,0-0.067,0-0.1c-0.465-45.034-37.472-81.671-82.491-81.671
		c-45.016,0-82.024,36.637-82.491,81.671c0,0.193-0.033,0.832-0.047,1.026c0,45.36,37.028,82.387,82.538,82.387
		C996.671,1054.881,1033.698,1017.854,1033.698,972.34z"/>
	<path fill="#FFFFFF" d="M523.958,506.033c99.504,0,180.456-80.952,180.456-180.456c0-99.506-80.952-180.459-180.456-180.459
		c-99.51,0-180.462,80.953-180.462,180.459C343.497,425.081,424.449,506.033,523.958,506.033z M474.426,454.082
		c-9.129,0-16.531-7.401-16.531-16.533c0-9.129,7.402-16.532,16.531-16.532c9.131,0,16.533,7.403,16.533,16.532
		C490.959,446.681,483.557,454.082,474.426,454.082z M573.054,454.082c-9.131,0-16.533-7.401-16.533-16.533
		c0-9.129,7.402-16.532,16.533-16.532c9.131,0,16.531,7.403,16.531,16.532C589.586,446.681,582.185,454.082,573.054,454.082z
		 M424.814,227.613h22.626c5.221,0,9.602,3.928,10.169,9.115l2.428,22.236h147.85c3.236,0,6.287,1.531,8.21,4.132
		c1.932,2.6,2.518,5.959,1.58,9.055l-18.133,59.958c-1.184,3.919-4.592,6.755-8.662,7.205l-118.147,13.104l4.09,29.324h107.398
		c5.646,0,10.227,4.577,10.227,10.227c0,5.65-4.581,10.227-10.227,10.227H467.921c-5.099,0-9.421-3.762-10.126-8.815
		l-16.846-120.853l-2.677-24.459h-13.457c-5.646,0-10.227-4.578-10.227-10.227C414.587,232.191,419.168,227.613,424.814,227.613z"/>
	<polygon fill="#94F7F2" points="462.557,279.418 469.908,332.153 581.921,319.728 594.112,279.418 	"/>
	<path fill="#565656" d="M424.814,248.067h13.457l2.677,24.459l16.846,120.853c0.706,5.053,5.027,8.815,10.126,8.815h116.303
		c5.646,0,10.227-4.577,10.227-10.227c0-5.649-4.581-10.227-10.227-10.227H476.825l-4.09-29.324l118.147-13.104
		c4.069-0.45,7.477-3.286,8.662-7.205l18.133-59.958c0.939-3.097,0.353-6.455-1.58-9.055c-1.923-2.6-4.973-4.132-8.21-4.132h-147.85
		l-2.428-22.236c-0.567-5.187-4.948-9.115-10.169-9.115h-22.626c-5.646,0-10.227,4.578-10.227,10.227
		C414.587,243.489,419.168,248.067,424.814,248.067z M469.908,332.153l-7.351-52.734h131.555l-12.191,40.31L469.908,332.153z"/>
	<path fill="#565656" d="M474.426,421.017c-9.129,0-16.531,7.403-16.531,16.532c0,9.132,7.402,16.533,16.531,16.533
		c9.131,0,16.533-7.401,16.533-16.533C490.959,428.42,483.557,421.017,474.426,421.017z"/>
	<path fill="#565656" d="M573.054,421.017c-9.131,0-16.533,7.403-16.533,16.532c0,9.132,7.402,16.533,16.533,16.533
		c9.131,0,16.531-7.401,16.531-16.533C589.586,428.42,582.185,421.017,573.054,421.017z"/>
	<path fill="#565656" d="M1145.194,727.349l-114.213-71.381L967.74,483.488c-1.477-4.028-5.314-6.705-9.6-6.705H830.677v-37.134
		v-43.945c0-5.649-4.581-10.227-10.227-10.227h-52.509c-5.646,0-10.227,4.578-10.227,10.227c0,0.171,0.041,0.331,0.05,0.5
		c0.266,5.412,4.703,9.727,10.177,9.727h42.281v33.718v47.362v319.925c0,5.629,4.548,10.187,10.166,10.221
		c0.021,0,0.039,0.006,0.061,0.006c5.646,0,10.227-4.577,10.227-10.227V497.238h120.317l61.989,169.063
		c0.78,2.137,2.25,3.948,4.181,5.153l112.381,70.236v219.444h-76.053c-0.006-0.065-0.024-0.126-0.03-0.19
		c-0.131-1.181-0.378-2.327-0.55-3.496c-0.31-2.121-0.605-4.246-1.046-6.323c-0.28-1.33-0.669-2.616-1.002-3.928
		c-0.474-1.865-0.926-3.739-1.501-5.564c-0.424-1.347-0.94-2.648-1.416-3.971c-0.625-1.729-1.236-3.46-1.95-5.145
		c-0.559-1.321-1.192-2.597-1.805-3.889c-0.765-1.618-1.528-3.234-2.375-4.805c-0.685-1.271-1.43-2.499-2.165-3.74
		c-0.899-1.515-1.806-3.021-2.781-4.486c-0.803-1.207-1.65-2.374-2.501-3.544c-1.028-1.411-2.069-2.807-3.165-4.164
		c-0.912-1.132-1.857-2.229-2.816-3.32c-1.145-1.304-2.313-2.58-3.523-3.825c-1.013-1.043-2.044-2.059-3.099-3.059
		c-1.261-1.196-2.553-2.353-3.874-3.484c-1.099-0.943-2.208-1.868-3.347-2.764c-1.373-1.08-2.783-2.11-4.208-3.121
		c-1.178-0.835-2.358-1.664-3.572-2.45c-1.479-0.959-2.998-1.851-4.528-2.733c-1.244-0.719-2.479-1.442-3.754-2.109
		c-1.591-0.832-3.222-1.581-4.858-2.331c-1.288-0.589-2.562-1.2-3.879-1.737c-1.717-0.702-3.479-1.303-5.241-1.913
		c-1.299-0.45-2.581-0.936-3.904-1.335c-1.876-0.564-3.795-1.009-5.712-1.467c-1.271-0.304-2.52-0.663-3.808-0.918
		c-2.145-0.426-4.337-0.707-6.526-0.996c-1.106-0.147-2.187-0.365-3.306-0.475c-3.326-0.328-6.692-0.511-10.099-0.511
		c-3.408,0-6.778,0.183-10.106,0.511c-1.118,0.111-2.203,0.329-3.31,0.476c-2.189,0.289-4.38,0.571-6.525,0.997
		c-1.301,0.258-2.561,0.619-3.844,0.927c-1.902,0.456-3.808,0.897-5.669,1.457c-1.351,0.408-2.661,0.904-3.989,1.365
		c-1.729,0.6-3.46,1.191-5.147,1.88c-1.358,0.554-2.673,1.182-4,1.793c-1.589,0.729-3.175,1.458-4.721,2.265
		c-1.332,0.696-2.624,1.451-3.921,2.202c-1.461,0.848-2.915,1.702-4.332,2.619c-1.291,0.834-2.545,1.714-3.795,2.603
		c-1.337,0.951-2.655,1.916-3.943,2.927c-1.238,0.972-2.443,1.976-3.635,3.003c-1.205,1.036-2.383,2.094-3.539,3.184
		c-1.175,1.109-2.323,2.24-3.446,3.403c-1.069,1.106-2.104,2.239-3.123,3.393c-1.099,1.243-2.176,2.497-3.216,3.792
		c-0.934,1.163-1.824,2.36-2.707,3.564c-1.008,1.374-2.006,2.753-2.948,4.178c-0.795,1.205-1.534,2.443-2.28,3.682
		c-0.907,1.507-1.811,3.01-2.643,4.565c-0.658,1.23-1.246,2.498-1.854,3.756c-0.789,1.634-1.586,3.256-2.29,4.932
		c-0.528,1.261-0.972,2.559-1.45,3.844c-0.649,1.739-1.318,3.464-1.872,5.245c-0.405,1.293-0.707,2.626-1.06,3.941
		c-0.488,1.827-1.014,3.636-1.405,5.501c-0.294,1.41-0.465,2.86-0.702,4.289c-0.298,1.811-0.655,3.602-0.857,5.443
		c-0.002,0.019-0.006,0.037-0.008,0.057h-28.426H523.393c-0.006-0.065-0.024-0.126-0.031-0.19c-0.131-1.181-0.378-2.327-0.548-3.496
		c-0.312-2.121-0.606-4.246-1.046-6.323c-0.282-1.33-0.671-2.616-1.003-3.928c-0.474-1.865-0.926-3.739-1.501-5.564
		c-0.424-1.347-0.939-2.648-1.416-3.971c-0.625-1.729-1.236-3.46-1.948-5.145c-0.559-1.321-1.194-2.597-1.806-3.889
		c-0.765-1.618-1.528-3.234-2.373-4.805c-0.687-1.271-1.43-2.499-2.167-3.74c-0.899-1.515-1.806-3.021-2.781-4.486
		c-0.802-1.207-1.65-2.374-2.501-3.544c-1.027-1.411-2.069-2.807-3.164-4.164c-0.913-1.132-1.858-2.229-2.817-3.32
		c-1.145-1.304-2.313-2.58-3.521-3.825c-1.014-1.043-2.044-2.059-3.099-3.059c-1.263-1.196-2.554-2.353-3.877-3.484
		c-1.098-0.943-2.205-1.868-3.345-2.764c-1.373-1.08-2.781-2.11-4.208-3.121c-1.178-0.835-2.356-1.664-3.572-2.45
		c-1.477-0.959-2.999-1.851-4.528-2.733c-1.243-0.719-2.477-1.442-3.753-2.109c-1.591-0.832-3.224-1.581-4.86-2.331
		c-1.288-0.589-2.562-1.2-3.877-1.737c-1.717-0.702-3.48-1.303-5.241-1.913c-1.301-0.45-2.583-0.936-3.906-1.335
		c-1.874-0.564-3.795-1.009-5.71-1.467c-1.272-0.304-2.521-0.663-3.81-0.918c-2.145-0.426-4.336-0.707-6.525-0.996
		c-1.107-0.147-2.189-0.365-3.307-0.475c-3.326-0.328-6.69-0.511-10.098-0.511c-3.41,0-6.778,0.183-10.106,0.511
		c-1.123,0.111-2.213,0.33-3.325,0.478c-2.183,0.288-4.369,0.569-6.507,0.993c-1.313,0.261-2.587,0.626-3.884,0.937
		c-1.887,0.453-3.778,0.889-5.624,1.445c-1.372,0.413-2.701,0.917-4.049,1.385c-1.706,0.593-3.413,1.175-5.079,1.855
		c-1.384,0.565-2.728,1.207-4.084,1.829c-1.556,0.715-3.109,1.428-4.624,2.219c-1.373,0.715-2.702,1.493-4.039,2.269
		c-1.413,0.82-2.819,1.645-4.189,2.53c-1.348,0.87-2.655,1.787-3.959,2.717c-1.268,0.904-2.524,1.821-3.75,2.782
		c-1.309,1.025-2.583,2.087-3.843,3.173c-1.12,0.968-2.221,1.952-3.298,2.967c-1.261,1.186-2.49,2.396-3.691,3.643
		c-0.972,1.008-1.912,2.04-2.841,3.088c-1.198,1.346-2.369,2.71-3.495,4.118c-0.824,1.03-1.608,2.086-2.392,3.148
		c-1.118,1.514-2.217,3.037-3.255,4.612c-0.674,1.026-1.301,2.079-1.939,3.13c-1.027,1.685-2.038,3.376-2.967,5.122
		c-0.534,1.004-1.011,2.039-1.512,3.062c-0.907,1.852-1.808,3.702-2.605,5.612c-0.411,0.984-0.753,1.999-1.134,2.999
		c-0.762,2.004-1.526,4.004-2.164,6.064c-0.299,0.965-0.518,1.961-0.789,2.938c-0.592,2.133-1.194,4.262-1.649,6.447
		c-0.216,1.042-0.334,2.119-0.52,3.173c-0.375,2.152-0.781,4.293-1.021,6.487c-0.002,0.02-0.006,0.04-0.009,0.061h-82.736V787.73
		H345.86c5.646,0,10.227-4.577,10.227-10.227c0-5.649-4.581-10.227-10.227-10.227H235.977v-88.66h64.473
		c5.646,0,10.227-4.578,10.227-10.227c0-5.65-4.581-10.227-10.227-10.227h-64.473v-88.663H345.86
		c5.646,0,10.227-4.577,10.227-10.227c0-5.649-4.581-10.227-10.227-10.227H235.977V405.931h40.889c5.474,0,9.911-4.315,10.177-9.727
		c0.008-0.169,0.05-0.329,0.05-0.5c0-5.649-4.581-10.227-10.227-10.227H225.75c-5.647,0-10.227,4.578-10.227,10.227v153.339H105.638
		c-5.646,0-10.227,4.578-10.227,10.227c0,5.65,4.581,10.227,10.227,10.227h109.885v88.663H60.229
		c-5.646,0-10.229,4.577-10.229,10.227c0,5.649,4.583,10.227,10.229,10.227h155.294v88.66H105.638
		c-5.646,0-10.227,4.578-10.227,10.227c0,5.65,4.581,10.227,10.227,10.227h109.885v183.632c0,5.649,4.58,10.227,10.227,10.227
		h92.773c4.698,52.468,48.857,93.747,102.53,93.747s97.831-41.279,102.529-93.747h325.049
		c4.699,52.468,48.855,93.747,102.523,93.747c53.674,0,97.833-41.279,102.53-93.747h86.089c5.646,0,10.227-4.578,10.227-10.227
		V736.021C1150,732.496,1148.183,729.216,1145.194,727.349z M868.616,972.494c0.014-0.193,0.047-0.833,0.047-1.026
		c0.466-45.034,37.475-81.671,82.491-81.671c45.019,0,82.026,36.637,82.491,81.671c0,0.033,0,0.067,0,0.1l0.054,0.772
		c0,45.513-37.026,82.541-82.544,82.541C905.643,1054.881,868.616,1017.854,868.616,972.494z M338.503,972.604
		c0.019-0.226,0.06-0.909,0.06-1.135c0.466-45.034,37.472-81.671,82.491-81.671c45.017,0,82.024,36.637,82.491,81.671
		c0,0.033,0,0.067,0,0.1l0.054,0.772c0,45.513-37.028,82.541-82.544,82.541S338.509,1017.854,338.503,972.604z"/>
	<path fill="#565656" d="M523.958,526.488c85.935,0,159.409-54.248,188.061-130.284c8.284-21.986,12.849-45.778,12.849-70.626
		c0-110.785-90.127-200.914-200.91-200.914c-110.789,0-200.918,90.128-200.918,200.914c0,24.848,4.565,48.64,12.851,70.626
		C364.543,472.24,438.019,526.488,523.958,526.488z M523.958,145.119c99.504,0,180.456,80.953,180.456,180.459
		c0,99.503-80.952,180.456-180.456,180.456c-99.51,0-180.462-80.952-180.462-180.456
		C343.497,226.072,424.449,145.119,523.958,145.119z"/>
</g>
</svg>
